<svg xmlns="http://www.w3.org/2000/svg" viewBox="0 0 512 512">
  <defs>
    <linearGradient id="bg" x1="0" y1="0" x2="1" y2="1">
      <stop offset="0%" stop-color="#c4713b"/>
      <stop offset="100%" stop-color="#9a4e23"/>
    </linearGradient>
    <linearGradient id="page" x1="0" y1="0" x2="0" y2="1">
      <stop offset="0%" stop-color="#fff"/>
      <stop offset="100%" stop-color="#f5f0ea"/>
    </linearGradient>
  </defs>
  <rect width="512" height="512" rx="108" fill="url(#bg)"/>
  <g transform="translate(256,260)">
    <path d="M-100,-80 Q-100,-100 -80,-100 L80,-100 Q100,-100 100,-80 L100,60 Q100,80 80,80 L-80,80 Q-100,80 -100,60 Z" fill="url(#page)" stroke="#d4c5b0" stroke-width="2"/>
    <path d="M0,-100 L0,80" stroke="#e0d5c8" stroke-width="1.5"/>
    <path d="M-80,-70 L-12,-70 M-80,-46 L-12,-46 M-80,-22 L-12,-22 M-80,2 L-12,2 M-80,26 L-12,26 M-80,50 L-12,50" stroke="#c4a882" stroke-width="3" stroke-linecap="round"/>
    <path d="M12,-70 L80,-70 M12,-46 L80,-46 M12,-22 L80,-22 M12,2 L80,2 M12,26 L80,26 M12,50 L80,50" stroke="#c4a882" stroke-width="3" stroke-linecap="round"/>
    <circle cx="0" cy="-130" r="28" fill="#f8e8c8" opacity="0.9"/>
    <path d="M0,-148 L6,-136 L0,-124 L-6,-136 Z" fill="#c4713b" opacity="0.8"/>
    <path d="M-14,-130 L-2,-124 L-14,-118 Z" fill="#c4713b" opacity="0.6"/>
    <path d="M14,-130 L2,-124 L14,-118 Z" fill="#c4713b" opacity="0.6"/>
  </g>
</svg>
